<svg width="1440" height="220" viewBox="0 0 1440 220" fill="none" xmlns="http://www.w3.org/2000/svg">
<path d="M0 36.9998C288 -53.0003 796.979 128.624 1062 56.6313C1327.02 -15.3615 1477 4.49969 1477 47.9997C1477 91.4997 1440 220 1440 220H0C0 220 -288 127 0 36.9998Z" fill="white" fill-opacity="0.83"/>
<path d="M10 56.9998C325.5 137.5 795.5 -47.7373 1072 76.6313C1348.5 201 1487 24.4997 1487 67.9997C1487 111.5 1450 240 1450 240H10C10 240 -305.5 -23.5001 10 56.9998Z" fill="white" fill-opacity="0.83"/>
<path d="M10 10.5C260.5 62 608.5 131.5 880 71.0001C1151.5 10.5 1477 18.5 1477 62C1477 105.5 1440 234 1440 234H0C0 234 -240.5 -41.0001 10 10.5Z" fill="white" fill-opacity="0.51"/>
<path d="M10 71.0001C325.5 151.5 841 264.263 1072 90.6316C1303 -82.9999 1487 38.5 1487 82C1487 125.5 1450 254 1450 254H10C10 254 -305.5 -9.49981 10 71.0001Z" fill="white" fill-opacity="0.51"/>
</svg>
